<svg width="1080" height="1080" viewBox="0 0 1080 1080" fill="none" xmlns="http://www.w3.org/2000/svg">
<path fill-rule="evenodd" clip-rule="evenodd" d="M805.701 162.547C822.919 143.219 847.08 155.234 851.539 180.731C852.644 187.048 853.826 193.877 855.068 201.141C799.633 262.986 774.573 310.152 732.243 389.823C731.232 391.726 730.211 393.647 729.18 395.587C796.244 304.487 833.928 257.102 862.757 247.374C873.261 312.361 885.027 393.358 890.012 457.066C893.358 499.828 897.146 552.722 900.586 602.308C903.167 639.509 893.09 661.977 873.833 671.653C864.011 703.303 850.142 733.608 832.398 761.694C782.256 841.058 704.942 896.731 616.191 917.382C600.561 921.018 584.783 923.521 568.961 924.907C558.824 901.004 547.499 871.716 534.249 836.587C534.695 838.62 535.137 840.633 535.575 842.627C542.52 874.262 548.392 901.006 554.882 925.845C485.48 929.023 415.828 910.863 354.672 872.852C275.421 823.596 216.392 744.707 189.6 652.243C364.721 680.194 462.366 681.654 635.769 663.293C729.009 653.42 781.298 625.698 818.211 588.091C840.497 513.115 848.616 434.407 824.133 430.791C819.761 430.145 813.173 430.947 805.083 432.667C764.189 455.92 730.322 473.736 698.9 488.136C723.295 492.134 742.127 504.036 749.037 522.517C762.026 557.261 727.961 602.099 672.95 622.665C617.94 643.232 562.815 631.739 549.826 596.996C542.421 577.19 550.307 554.104 568.648 534.104C567.458 534.416 566.264 534.727 565.065 535.037C500.822 543.424 448.647 548.884 398.759 551.69C426.229 582.148 435.844 618.25 419.743 641.871C398.851 672.52 342.575 670.55 294.047 637.471C259.145 613.681 237.757 580.277 236.27 551.992C218.248 551.183 199.391 550.129 179.373 548.84C175.219 457.829 205.9 368.655 265.174 299.467C324.447 230.279 407.856 186.277 498.427 176.416C587.3 166.741 676.513 190.652 748.584 243.338C767.883 211.573 787.696 182.756 805.701 162.547ZM607.298 589.289C621.754 583.823 629.042 567.673 623.576 553.217C618.11 538.76 601.96 531.472 587.504 536.938C573.047 542.404 565.759 558.554 571.225 573.011C576.691 587.467 592.841 594.755 607.298 589.289ZM299.516 609.986C313.603 616.343 330.176 610.077 336.533 595.989C342.891 581.902 336.624 565.329 322.537 558.972C308.45 552.615 291.877 558.881 285.519 572.968C279.162 587.055 285.429 603.629 299.516 609.986Z" fill="white"/>
</svg>
